<svg xmlns="http://www.w3.org/2000/svg" viewBox="0 0 2116.76 204.46"><g id="Capa_2" data-name="Capa 2"><g id="Capa_1-2" data-name="Capa 1"><path d="M0,101.67C0,42.29,37.53,0,97.75,0c58.25,0,98.3,40.05,98.3,101.67,0,59.93-37.81,102.79-98.3,102.79C39.77,204.46,0,164.12,0,101.67Zm161.88,0C161.88,58,137,30.25,97.75,30.25c-38.93,0-63.58,27.73-63.58,71.42,0,44.25,24.65,72.26,63.58,72.26C137,173.93,161.88,145.92,161.88,101.67Z"/><path d="M271.67,200.25V34.45H206.13V4.2H370.54V34.45H305.28v165.8Z"/><path d="M452.31,200.25V34.45H386.78V4.2h164.4V34.45H485.92v165.8Z"/><path d="M579.74,200.25V4.2H717V34.45H613.07V84.86h94.11v29.41H613.07V170H719.5v30.24Z"/><path d="M750.86,200.25V4.2h95.79c37.25,0,63,22.69,63,55.46,0,24.08-17.09,44-43.13,50.69,12.88,2.52,22.12,10.36,26.88,22.41l25.21,67.49H882.78l-22.69-61.89c-2.8-7.84-9.24-12.05-18.2-12.05H784.47v73.94ZM784.47,96.63H845c20.73,0,31.37-14.85,31.37-31.93,0-17.93-12.32-30.25-31.37-30.25h-60.5Z"/><path d="M1059.78,200.25V34.45H994.24V4.2h164.41V34.45h-65.26v165.8Z"/><path d="M1187.21,200.25V4.2H1283c37.25,0,63,22.69,63,55.46,0,24.08-17.08,44-43.13,50.69,12.88,2.52,22.13,10.36,26.89,22.41l25.2,67.49h-35.85l-22.68-61.89c-2.8-7.84-9.24-12.05-18.21-12.05h-57.41v73.94Zm33.61-103.62h60.49c20.73,0,31.37-14.85,31.37-31.93,0-17.93-12.32-30.25-31.37-30.25h-60.49Z"/><path d="M1366.45,200.25l80.1-196h33.61l80.38,196.05h-34.73l-19.88-48.45h-84.86l-19.89,48.45Zm66.66-78.14h60.78l-30.25-74.5Z"/><path d="M1616,200.25l-76.19-196h36.13l57.7,150.12L1689.38,4.2h35.85l-73.94,196.05Z"/><path d="M1749.31,200.25V4.2h137.23V34.45h-103.9V84.86h94.1v29.41h-94.1V170h106.42v30.24Z"/><path d="M1920.43,200.25V4.2H1954V170h100v30.24Z"/><path d="M2073.9,182.33A20.94,20.94,0,0,1,2095.19,161c12.32,0,21.57,9.25,21.57,21.29a21.07,21.07,0,0,1-21.57,21.57C2083.15,203.9,2073.9,194.65,2073.9,182.33Z"/></g></g></svg>