<svg xmlns="http://www.w3.org/2000/svg" xmlns:xlink="http://www.w3.org/1999/xlink" viewBox="0 0 657 657"><defs><style>.cls-1{fill:none;}.cls-2{clip-path:url(#clip-path);}.cls-3{fill:#7fffd4;}</style><clipPath id="clip-path"><circle class="cls-1" cx="328.5" cy="328.5" r="328.5"/></clipPath></defs><g id="Capa_2" data-name="Capa 2"><g id="Capa_1-2" data-name="Capa 1"><g class="cls-2"><circle class="cls-3" cx="328.5" cy="328.5" r="328.5"/><path d="M214.33,324.47,225,329.75a34.63,34.63,0,0,0,15.75,3.71,35.14,35.14,0,0,0,35.11-35.12V280.7a52.8,52.8,0,0,0-52.75-52.76H170.23a52.81,52.81,0,0,0-52.76,52.76v17.64a35.14,35.14,0,0,0,50.86,31.41L179,324.47l6.93-3.46-9.81-6.51a13.13,13.13,0,0,1-5.85-11v-3.05A19.74,19.74,0,0,1,190,280.7H203.2A19.74,19.74,0,0,1,223,300.49v3.05a13.33,13.33,0,0,1-5.85,11L207.4,321l6.93,3.46Zm-7.09,40.73-10.63-5.36L186,365.11A74.67,74.67,0,0,1,152.59,373a76.41,76.41,0,0,1-8.74-.5v.5a52.81,52.81,0,0,0,52.76,52.76h52.75a26.38,26.38,0,1,1,0,52.75h131.9V425.79A52.81,52.81,0,0,1,434,373V359.84a39.57,39.57,0,0,1,39.56-39.57,13.23,13.23,0,0,1,13.19,13.19V412.6a13.19,13.19,0,1,0,26.38,0V330.41A92.37,92.37,0,0,0,450,242.78l-7-2.31A13.2,13.2,0,0,1,449.76,215l16.41,3.3A156.85,156.85,0,0,1,592.29,372.12V373h0c0,102-82.68,184.65-184.65,184.65H275.25A184.13,184.13,0,0,1,91.09,373.52V340.71A74.13,74.13,0,0,1,77.9,298.34V279.55a19.77,19.77,0,0,1,6.59-38.42H86.8a92.37,92.37,0,0,1,83.43-52.75H223a92.37,92.37,0,0,1,83.43,52.75h2.31a19.77,19.77,0,0,1,6.59,38.42v18.79c0,1.16,0,2.31-.08,3.55a71.89,71.89,0,0,1,33-7.92h6.6a26.38,26.38,0,0,1,0,52.76h-6.6a19.74,19.74,0,0,0-19.78,19.79v6.59H375a78.81,78.81,0,0,0-20.11,52.76H328.5a79.26,79.26,0,0,1-75-53.83,75.28,75.28,0,0,1-46.24-6.84Zm-63.39-71.31A13.19,13.19,0,1,1,157,280.7,13.22,13.22,0,0,1,143.85,293.89Zm118.7-13.19a13.19,13.19,0,1,1-13.19-13.19A13.22,13.22,0,0,1,262.55,280.7Z"/></g></g></g></svg>