<svg xmlns="http://www.w3.org/2000/svg" viewBox="0 0 2435.16 204.46"><g id="Capa_2" data-name="Capa 2"><g id="Capa_1-2" data-name="Capa 1"><path d="M318.4,101.67C318.4,42.29,355.93,0,416.15,0c58.25,0,98.3,40.05,98.3,101.67,0,59.93-37.81,102.79-98.3,102.79C358.17,204.46,318.4,164.12,318.4,101.67Zm161.88,0c0-43.69-24.92-71.42-64.13-71.42-38.93,0-63.58,27.73-63.58,71.42,0,44.25,24.65,72.26,63.58,72.26C455.36,173.93,480.28,145.92,480.28,101.67Z"/><path d="M590.07,200.25V34.45H524.53V4.2H688.94V34.45H623.68v165.8Z"/><path d="M770.71,200.25V34.45H705.18V4.2h164.4V34.45H804.32v165.8Z"/><path d="M898.14,200.25V4.2h137.24V34.45H931.47V84.86h94.11v29.41H931.47V170H1037.9v30.24Z"/><path d="M1069.27,200.25V4.2h95.78c37.25,0,63,22.69,63,55.46,0,24.08-17.09,44-43.13,50.69,12.88,2.52,22.12,10.36,26.88,22.41L1237,200.25h-35.85l-22.69-61.89c-2.8-7.84-9.24-12.05-18.2-12.05h-57.42v73.94Zm33.6-103.62h60.5c20.73,0,31.37-14.85,31.37-31.93,0-17.93-12.32-30.25-31.37-30.25h-60.5Z"/><path d="M1378.18,200.25V34.45h-65.54V4.2h164.41V34.45h-65.26v165.8Z"/><path d="M1505.61,200.25V4.2h95.79c37.25,0,63,22.69,63,55.46,0,24.08-17.08,44-43.13,50.69,12.88,2.52,22.13,10.36,26.89,22.41l25.2,67.49h-35.85l-22.68-61.89c-2.8-7.84-9.24-12.05-18.21-12.05h-57.41v73.94Zm33.61-103.62h60.49c20.73,0,31.37-14.85,31.37-31.93,0-17.93-12.32-30.25-31.37-30.25h-60.49Z"/><path d="M1684.85,200.25,1765,4.2h33.61L1879,200.25h-34.73l-19.89-48.45h-84.86l-19.89,48.45Zm66.66-78.14h60.78L1782,47.61Z"/><path d="M1934.4,200.25l-76.18-196h36.13L1952,154.32,2007.78,4.2h35.85l-73.94,196.05Z"/><path d="M2067.71,200.25V4.2h137.23V34.45H2101V84.86h94.1v29.41H2101V170h106.42v30.24Z"/><path d="M2238.83,200.25V4.2h33.61V170h100v30.24Z"/><path d="M2392.31,182.33A20.93,20.93,0,0,1,2413.59,161c12.32,0,21.57,9.25,21.57,21.29a21.07,21.07,0,0,1-21.57,21.57C2401.55,203.9,2392.31,194.65,2392.31,182.33Z"/><path d="M82.83,75.35l5.89,2.92a19.11,19.11,0,0,0,8.71,2,19.45,19.45,0,0,0,19.44-19.44V51.12a29.23,29.23,0,0,0-29.2-29.21H58.41a29.23,29.23,0,0,0-29.2,29.21v9.76A19.46,19.46,0,0,0,57.36,78.27l5.89-2.92,3.84-1.92-5.44-3.6a7.28,7.28,0,0,1-3.24-6.07V62.07a10.93,10.93,0,0,1,11-11h7.3a10.92,10.92,0,0,1,11,11v1.69a7.38,7.38,0,0,1-3.24,6.07L79,73.43l3.83,1.92ZM78.91,97.89l-5.89-3-5.89,2.92a41.44,41.44,0,0,1-18.48,4.38,43.08,43.08,0,0,1-4.84-.27v.27A29.24,29.24,0,0,0,73,131.44h29.21a14.6,14.6,0,1,1,0,29.2h73v-29.2a29.23,29.23,0,0,1,29.21-29.21v-7.3A21.91,21.91,0,0,1,226.36,73a7.33,7.33,0,0,1,7.3,7.3v43.81a7.3,7.3,0,1,0,14.6,0V78.63a51.14,51.14,0,0,0-35-48.51l-3.87-1.27a7.31,7.31,0,0,1,3.74-14.11l9.08,1.83a86.83,86.83,0,0,1,69.82,85.16v.5h0A102.23,102.23,0,0,1,189.85,204.45H116.56A101.94,101.94,0,0,1,14.6,102.5V84.34A41.06,41.06,0,0,1,7.3,60.88V50.48A10.95,10.95,0,0,1,11,29.21h1.28A51.15,51.15,0,0,1,58.41,0H87.62a51.15,51.15,0,0,1,46.19,29.21h1.27a10.95,10.95,0,0,1,3.65,21.27v10.4c0,.64,0,1.28,0,2A39.94,39.94,0,0,1,157,58.46h3.65a14.61,14.61,0,0,1,0,29.21H157a10.92,10.92,0,0,0-11,11v3.65h25.74a43.65,43.65,0,0,0-11.14,29.21H146a43.86,43.86,0,0,1-41.53-29.8,41.71,41.71,0,0,1-25.6-3.79ZM43.81,58.42a7.31,7.31,0,1,1,7.3-7.3A7.32,7.32,0,0,1,43.81,58.42Zm65.72-7.3a7.31,7.31,0,1,1-7.3-7.31A7.33,7.33,0,0,1,109.53,51.12Z"/></g></g></svg>