<svg xmlns="http://www.w3.org/2000/svg" xmlns:xlink="http://www.w3.org/1999/xlink" viewBox="0 0 755.18 657"><defs><style>.cls-1{fill:none;}.cls-2{clip-path:url(#clip-path);}.cls-3{fill:#7fffd4;}</style><clipPath id="clip-path" transform="translate(49.09)"><circle class="cls-1" cx="328.5" cy="328.5" r="328.5"/></clipPath></defs><g id="Capa_2" data-name="Capa 2"><g id="Capa_1-2" data-name="Capa 1"><g class="cls-2"><circle class="cls-3" cx="377.59" cy="328.5" r="328.5"/><path d="M165.07,323.19l15.23,7.55a49.47,49.47,0,0,0,22.53,5.31,50.31,50.31,0,0,0,50.27-50.27V260.53A75.59,75.59,0,0,0,177.58,185H102a75.59,75.59,0,0,0-75.52,75.52v25.25a50.3,50.3,0,0,0,72.8,45l15.22-7.55,9.92-5-14.05-9.32A18.8,18.8,0,0,1,102,293.22v-4.37a28.25,28.25,0,0,1,28.32-28.32h18.88a28.25,28.25,0,0,1,28.31,28.32v4.37a19.1,19.1,0,0,1-8.37,15.69l-13.93,9.32,9.91,5Zm-10.14,58.29-15.22-7.67-15.23,7.55A107,107,0,0,1,76.7,392.69,110,110,0,0,1,64.19,392v.71a75.59,75.59,0,0,0,75.52,75.52h75.51a37.76,37.76,0,1,1,0,75.51H404V468.21a75.6,75.6,0,0,1,75.52-75.52V373.81a56.65,56.65,0,0,1,56.63-56.64,18.93,18.93,0,0,1,18.88,18.88V449.33a18.88,18.88,0,1,0,37.76,0V331.68a132.22,132.22,0,0,0-90.38-125.43l-10-3.3a18.9,18.9,0,0,1,9.67-36.46l23.48,4.72A224.53,224.53,0,0,1,706.09,391.39v1.3h0c0,146-118.35,264.31-264.31,264.31H252.27c-145.6,0-263.6-118-263.6-263.6v-47a106.16,106.16,0,0,1-18.88-60.65v-26.9a28.27,28.27,0,0,1-18.88-26.67,28.26,28.26,0,0,1,28.32-28.32h3.3A132.22,132.22,0,0,1,102,128.38h75.51a132.22,132.22,0,0,1,119.42,75.51h3.3a28.3,28.3,0,0,1,9.44,55v26.9c0,1.66,0,3.31-.12,5.08a102.9,102.9,0,0,1,47.32-11.33h9.44a37.76,37.76,0,0,1,0,75.52h-9.44a28.25,28.25,0,0,0-28.32,28.32v9.44h66.55a112.8,112.8,0,0,0-28.79,75.51H328.5a113.43,113.43,0,0,1-107.38-77.05,107.56,107.56,0,0,1-66.19-9.79ZM64.19,279.41a18.88,18.88,0,1,1,18.88-18.88A18.93,18.93,0,0,1,64.19,279.41ZM234.1,260.53a18.88,18.88,0,1,1-18.88-18.88A18.93,18.93,0,0,1,234.1,260.53Z" transform="translate(49.09)"/></g></g></g></svg>